SiMBALORD PRESENTS
... A UKB RELEASE TiTLE: Grown Ups
TYPE : x264 DVDRip
SiZE : 0.99 GB (1,073,374,144 bytes)
PS3 : YES, TESTED PLOT : After their high school basketball
coach passes away, five good friends and
former teammates reunite for a Fourth of
July holiday weekend. CAST :
Adam Sandler ... Lenny Feder
Kevin James ... Eric Lamonsoff
Chris Rock ... Kurt McKenzie
David Spade ... Marcus Higgins
Rob Schneider ... Rob Hilliard
Salma Hayek ... Roxanne Chase-Feder
Maria Bello ... Sally Lamonsoff
Maya Rudolph ... Deanne McKenzie
Ebony Jo-Ann ... Mama Ronzoni
Di Quon ... Rita
Steve Buscemi ... Wiley
Colin Quinn ... Dickie Bailey
Tim Meadows ... Malcolm
Madison Riley ... Jasmine Hilliard iMDB : tt1375670 General
Complete name : Grown.Ups.mp4
Format : MPEG-4
Format profile : Base Media
Codec ID : isom
File size : 1 024 MiB
Duration : 1h 42mn
Overall bit rate : 1 399 Kbps
Writing application : Lavf52.66.0 Video
ID : 1
Format : AVC
Format/Info : Advanced Video Codec
Format profile : High@L4.1
Format settings, CABAC : Yes
Format settings, ReFrames : 3 frames
Codec ID : avc1
Codec ID/Info : Advanced Video Coding
Duration : 1h 42mn
Bit rate mode : Variable
Bit rate : 1 200 Kbps
Width : 720 pixels
Height : 392 pixels
Display aspect ratio : 16:9
Frame rate mode : Constant
Frame rate : 23.976 fps
Resolution : 8 bits
Colorimetry : 4:2:0
Scan type : Progressive
Bits/(Pixel*Frame) : 0.177
Stream size : 878 MiB (86%)
Writing library : x264 core 96
Encoding settings : cabac=1 / ref=3 / deblock=1:0:0 / analyse=0x3:0x133 / me=tesa / subme=10 / psy=1 /
psy_rd=1.00:0.00 / mixed_ref=1 / me_range=16 / chroma_me=1 / trellis=2 / 8x8dct=1 /
cqm=0 / deadzone=21,11 / fast_pskip=1 / chroma_qp_offset=-2 / threads=6 /
sliced_threads=0 / nr=0 / decimate=1 / interlaced=0 / constrained_intra=0 / bframes=3 /
b_pyramid=1 / b_adapt=2 / b_bias=0 / direct=3 / weightb=1 / weightp=2 / keyint=230 /
keyint_min=23 / scenecut=40 / intra_refresh=0 / rc_lookahead=40 / rc=2pass / mbtree=1 /
bitrate=1200 / ratetol=0.2 / qcomp=0.60 / qpmin=10 / qpmax=51 / qpstep=4 / cplxblur=20.0 /
qblur=0.5 / vbv_maxrate=31250 / vbv_bufsize=31250 / ip_ratio=1.40 / aq=1:1.00 / nal_hrd=none Language : English Audio
ID : 2
Format : AAC
Format/Info : Advanced Audio Codec
Format version : Version 4
Format profile : LC
Format settings, SBR : No
Codec ID : 40
Duration : 1h 42mn
Bit rate mode : Variable
Bit rate : 192 Kbps
Channel(s) : 6 channels
Channel positions : Front: L C R, Rear: L R, LFE
Sampling rate : 48.0 KHz
Stream size : 141 MiB (14%)
Language : English
